<svg width="140" height="20" viewBox="0 0 140 20" fill="none" xmlns="http://www.w3.org/2000/svg">
<path d="M29.7542 16.1904V5.1082H34.3733C35.222 5.1082 35.9299 5.22905 36.497 5.47075C37.0641 5.71245 37.4903 6.04795 37.7757 6.47724C38.0611 6.90293 38.2038 7.39355 38.2038 7.94911C38.2038 8.38201 38.1137 8.7626 37.9334 9.09088C37.7532 9.41556 37.5053 9.68251 37.1899 9.89175C36.8782 10.0974 36.5214 10.2435 36.1196 10.3301V10.4383C36.559 10.4563 36.9702 10.5754 37.3532 10.7954C37.74 11.0155 38.0536 11.3239 38.294 11.7207C38.5343 12.114 38.6545 12.5829 38.6545 13.1277C38.6545 13.7157 38.5024 14.2406 38.1982 14.7024C37.8978 15.1605 37.4528 15.5231 36.8632 15.79C36.2736 16.057 35.5469 16.1904 34.6831 16.1904H29.7542ZM32.1933 14.2749H34.1818C34.8615 14.2749 35.3572 14.1504 35.6689 13.9015C35.9806 13.649 36.1365 13.3135 36.1365 12.895C36.1365 12.5884 36.0595 12.3178 35.9055 12.0833C35.7516 11.8488 35.5319 11.6648 35.2464 11.5314C34.9648 11.3979 34.6287 11.3311 34.2381 11.3311H32.1933V14.2749ZM32.1933 9.74564H34.0015C34.3358 9.74564 34.6324 9.68973 34.8916 9.57789C35.1544 9.46245 35.361 9.30012 35.5112 9.09088C35.6652 8.88164 35.7422 8.63092 35.7422 8.33872C35.7422 7.93828 35.5938 7.61541 35.2971 7.3701C35.0042 7.12479 34.5874 7.00213 34.0466 7.00213H32.1933V9.74564Z" fill="#DCF10D"/>
<path d="M43.9811 16.3528C43.0911 16.3528 42.325 16.1796 41.6828 15.8333C41.0444 15.4834 40.5524 14.9891 40.2069 14.3506C39.8614 13.7085 39.6887 12.9491 39.6887 12.0725C39.6887 11.2175 39.8614 10.4671 40.2069 9.8214C40.5524 9.17566 41.0387 8.67241 41.6659 8.31166C42.2968 7.95091 43.0366 7.77053 43.8854 7.77053C44.4562 7.77053 44.9876 7.85892 45.4795 8.03569C45.9752 8.20885 46.4071 8.47039 46.7751 8.82032C47.1469 9.17024 47.4361 9.61036 47.6426 10.1407C47.8492 10.6674 47.9525 11.2842 47.9525 11.9913V12.6244H40.6463V11.1959H45.6936C45.6936 10.864 45.6185 10.57 45.4683 10.3138C45.318 10.0577 45.1096 9.85747 44.843 9.71317C44.5801 9.56527 44.274 9.49131 43.9248 9.49131C43.5605 9.49131 43.2375 9.57248 42.9559 9.73482C42.678 9.89355 42.4602 10.1082 42.3024 10.3788C42.1447 10.6457 42.064 10.9433 42.0602 11.2716V12.6298C42.0602 13.0411 42.1391 13.3964 42.2968 13.6959C42.4583 13.9953 42.6855 14.2262 42.9784 14.3885C43.2713 14.5508 43.6187 14.632 44.0205 14.632C44.2872 14.632 44.5313 14.5959 44.7529 14.5238C44.9744 14.4516 45.1641 14.3434 45.3218 14.1991C45.4795 14.0548 45.5997 13.878 45.6823 13.6688L47.9018 13.8095C47.7891 14.3218 47.5581 14.7691 47.2089 15.1515C46.8634 15.5303 46.4165 15.8261 45.8682 16.0389C45.3237 16.2482 44.6946 16.3528 43.9811 16.3528Z" fill="#DCF10D"/>
<path d="M56.559 10.2489L54.3621 10.3788C54.3245 10.1984 54.2438 10.036 54.1198 9.89175C53.9959 9.74384 53.8325 9.62659 53.6298 9.54001C53.4307 9.44983 53.1922 9.40473 52.9143 9.40473C52.5426 9.40473 52.229 9.48049 51.9736 9.63201C51.7182 9.77991 51.5906 9.97833 51.5906 10.2272C51.5906 10.4257 51.6732 10.5934 51.8384 10.7305C52.0037 10.8676 52.2872 10.9776 52.689 11.0606L54.255 11.3636C55.0962 11.5296 55.7234 11.7965 56.1365 12.1645C56.5496 12.5324 56.7561 13.0158 56.7561 13.6147C56.7561 14.1594 56.589 14.6374 56.2548 15.0487C55.9243 15.4599 55.4699 15.781 54.8916 16.0119C54.317 16.2391 53.6542 16.3528 52.9031 16.3528C51.7577 16.3528 50.8451 16.1237 50.1654 15.6656C49.4894 15.2038 49.0932 14.5761 48.9768 13.7824L51.3371 13.6634C51.4084 13.9989 51.5812 14.255 51.8553 14.4318C52.1295 14.6049 52.4806 14.6915 52.9087 14.6915C53.3293 14.6915 53.6673 14.614 53.9227 14.4588C54.1818 14.3001 54.3132 14.0963 54.317 13.8474C54.3132 13.6381 54.2212 13.4668 54.041 13.3333C53.8607 13.1962 53.5828 13.0916 53.2073 13.0195L51.7089 12.7327C50.8639 12.5703 50.2349 12.2889 49.8218 11.8885C49.4124 11.4881 49.2078 10.9776 49.2078 10.3571C49.2078 9.8232 49.358 9.36325 49.6584 8.97724C49.9626 8.59124 50.3888 8.29362 50.9371 8.08439C51.4892 7.87515 52.1351 7.77053 52.8749 7.77053C53.9677 7.77053 54.8277 7.99239 55.4549 8.43612C56.0858 8.87984 56.4538 9.4841 56.559 10.2489Z" fill="#DCF10D"/>
<path d="M62.7109 7.87876V9.61036H57.5002V7.87876H62.7109ZM58.6832 5.88742H61.0829V13.6363C61.0829 13.8492 61.1167 14.0151 61.1843 14.1342C61.2519 14.2496 61.3458 14.3308 61.4659 14.3777C61.5899 14.4246 61.7326 14.448 61.8941 14.448C62.0067 14.448 62.1194 14.439 62.232 14.421C62.3447 14.3993 62.4311 14.3831 62.4912 14.3723L62.8686 16.0876C62.7484 16.1237 62.5794 16.1652 62.3616 16.2121C62.1438 16.2626 61.879 16.2933 61.5673 16.3041C60.989 16.3257 60.482 16.2518 60.0464 16.0822C59.6145 15.9127 59.2784 15.6493 59.0381 15.2922C58.7977 14.935 58.6794 14.4841 58.6832 13.9394V5.88742Z" fill="#DCF10D"/>
<path d="M70.4189 8.29543C70.3738 7.85892 70.1804 7.51981 69.8387 7.27811C69.4969 7.03641 69.0331 6.91555 68.4473 6.91555C68.0492 6.91555 67.7131 6.96967 67.439 7.07789C67.1648 7.18251 66.9545 7.32861 66.8081 7.5162C66.6654 7.70379 66.594 7.91664 66.594 8.15473C66.5865 8.35315 66.6297 8.52631 66.7236 8.67421C66.8212 8.82212 66.9545 8.95019 67.1235 9.05841C67.2925 9.16303 67.4878 9.25502 67.7094 9.33439C67.9309 9.41014 68.1675 9.47508 68.4191 9.52919L69.4556 9.76729C69.9589 9.87551 70.4208 10.0198 70.8414 10.2002C71.262 10.3806 71.6263 10.6024 71.9342 10.8658C72.2421 11.1291 72.4806 11.4394 72.6496 11.7965C72.8224 12.1537 72.9106 12.5631 72.9144 13.0249C72.9106 13.7031 72.7304 14.2911 72.3736 14.7889C72.0206 15.2832 71.5098 15.6674 70.8414 15.9415C70.1767 16.2121 69.3749 16.3474 68.436 16.3474C67.5047 16.3474 66.6935 16.2103 66.0025 15.9361C65.3153 15.6619 64.7783 15.2561 64.3914 14.7186C64.0084 14.1775 63.8075 13.5083 63.7887 12.711H66.149C66.1753 13.0826 66.2861 13.3928 66.4813 13.6417C66.6804 13.8871 66.9451 14.0728 67.2756 14.1991C67.6098 14.3218 67.9873 14.3831 68.4079 14.3831C68.821 14.3831 69.1796 14.3254 69.4838 14.2099C69.7917 14.0945 70.0302 13.934 70.1992 13.7283C70.3682 13.5227 70.4527 13.2864 70.4527 13.0195C70.4527 12.7705 70.3757 12.5613 70.2217 12.3917C70.0715 12.2222 69.8499 12.0779 69.557 11.9588C69.2679 11.8398 68.913 11.7316 68.4924 11.6342L67.2362 11.3311C66.2635 11.1039 65.4955 10.7485 64.9322 10.2651C64.3689 9.78172 64.0891 9.13056 64.0929 8.31166C64.0891 7.64066 64.275 7.05444 64.6506 6.553C65.0299 6.05156 65.55 5.66014 66.2109 5.37876C66.8719 5.09737 67.623 4.95668 68.4642 4.95668C69.3204 4.95668 70.0678 5.09737 70.7062 5.37876C71.3484 5.66014 71.8478 6.05156 72.2046 6.553C72.5614 7.05444 72.7454 7.63525 72.7566 8.29543H70.4189Z" fill="#DCF10D"/>
<path d="M76.751 11.3853V16.1904H74.3513V5.1082H76.6834V9.34521H76.7848C76.9801 8.85459 77.2956 8.47039 77.7312 8.19261C78.1668 7.91123 78.7132 7.77053 79.3704 7.77053C79.9713 7.77053 80.4952 7.8968 80.9421 8.14932C81.3927 8.39824 81.742 8.75719 81.9898 9.22616C82.2414 9.69153 82.3654 10.2489 82.3616 10.8982V16.1904H79.9619V11.3095C79.9657 10.7972 79.8305 10.3986 79.5563 10.1136C79.2859 9.82861 78.9066 9.68612 78.4184 9.68612C78.0917 9.68612 77.8025 9.75286 77.5509 9.88633C77.3031 10.0198 77.1078 10.2146 76.9651 10.4707C76.8261 10.7233 76.7548 11.0281 76.751 11.3853Z" fill="#DCF10D"/>
<path d="M88.0009 16.3528C87.1259 16.3528 86.3692 16.1742 85.7307 15.8171C85.0961 15.4563 84.606 14.9549 84.2605 14.3127C83.915 13.667 83.7422 12.9184 83.7422 12.0671C83.7422 11.2085 83.915 10.4581 84.2605 9.81599C84.606 9.17024 85.0961 8.6688 85.7307 8.31166C86.3692 7.95091 87.1259 7.77053 88.0009 7.77053C88.8759 7.77053 89.6307 7.95091 90.2654 8.31166C90.9038 8.6688 91.3958 9.17024 91.7413 9.81599C92.0868 10.4581 92.2595 11.2085 92.2595 12.0671C92.2595 12.9184 92.0868 13.667 91.7413 14.3127C91.3958 14.9549 90.9038 15.4563 90.2654 15.8171C89.6307 16.1742 88.8759 16.3528 88.0009 16.3528ZM88.0122 14.5671C88.4102 14.5671 88.7426 14.4588 89.0092 14.2424C89.2758 14.0223 89.4768 13.7229 89.612 13.3441C89.7509 12.9653 89.8204 12.5342 89.8204 12.0508C89.8204 11.5674 89.7509 11.1363 89.612 10.7575C89.4768 10.3788 89.2758 10.0793 89.0092 9.85928C88.7426 9.63922 88.4102 9.52919 88.0122 9.52919C87.6103 9.52919 87.2723 9.63922 86.9982 9.85928C86.7278 10.0793 86.5231 10.3788 86.3842 10.7575C86.249 11.1363 86.1814 11.5674 86.1814 12.0508C86.1814 12.5342 86.249 12.9653 86.3842 13.3441C86.5231 13.7229 86.7278 14.0223 86.9982 14.2424C87.2723 14.4588 87.6103 14.5671 88.0122 14.5671Z" fill="#DCF10D"/>
<path d="M93.6613 19.3073V7.87876H96.0272V9.27486H96.1342C96.2394 9.0512 96.3915 8.82392 96.5905 8.59304C96.7933 8.35856 97.0562 8.16375 97.3791 8.00863C97.7059 7.8499 98.1114 7.77053 98.5959 7.77053C99.2268 7.77053 99.8089 7.92926 100.342 8.24672C100.875 8.56058 101.302 9.03496 101.621 9.66988C101.94 10.3012 102.1 11.093 102.1 12.0454C102.1 12.9726 101.944 13.7554 101.632 14.3939C101.324 15.0288 100.904 15.5104 100.37 15.8387C99.8408 16.1634 99.2475 16.3257 98.5903 16.3257C98.1246 16.3257 97.7284 16.2518 97.4017 16.1039C97.0787 15.956 96.8139 15.7702 96.6074 15.5465C96.4008 15.3192 96.2431 15.0902 96.1342 14.8593H96.061V19.3073H93.6613ZM96.0103 12.0346C96.0103 12.5288 96.0816 12.9599 96.2243 13.3279C96.3671 13.6959 96.5736 13.9827 96.844 14.1883C97.1144 14.3903 97.443 14.4913 97.8298 14.4913C98.2204 14.4913 98.5508 14.3885 98.8212 14.1829C99.0916 13.9736 99.2963 13.685 99.4352 13.3171C99.5779 12.9455 99.6493 12.518 99.6493 12.0346C99.6493 11.5548 99.5798 11.1327 99.4409 10.7684C99.3019 10.404 99.0972 10.119 98.8269 9.91339C98.5565 9.70776 98.2241 9.60495 97.8298 9.60495C97.4392 9.60495 97.1087 9.70416 96.8384 9.90257C96.5717 10.101 96.3671 10.3824 96.2243 10.7467C96.0816 11.1111 96.0103 11.5404 96.0103 12.0346Z" fill="#DCF10D"/>
<path d="M103.586 16.1904V5.1082H106.025V14.2586H110.971V16.1904H103.586Z" fill="#DCF10D"/>
<path d="M116.292 16.3528C115.417 16.3528 114.66 16.1742 114.022 15.8171C113.387 15.4563 112.897 14.9549 112.552 14.3127C112.206 13.667 112.033 12.9184 112.033 12.0671C112.033 11.2085 112.206 10.4581 112.552 9.81599C112.897 9.17024 113.387 8.6688 114.022 8.31166C114.66 7.95091 115.417 7.77053 116.292 7.77053C117.167 7.77053 117.922 7.95091 118.556 8.31166C119.195 8.6688 119.687 9.17024 120.032 9.81599C120.378 10.4581 120.551 11.2085 120.551 12.0671C120.551 12.9184 120.378 13.667 120.032 14.3127C119.687 14.9549 119.195 15.4563 118.556 15.8171C117.922 16.1742 117.167 16.3528 116.292 16.3528ZM116.303 14.5671C116.701 14.5671 117.034 14.4588 117.3 14.2424C117.567 14.0223 117.768 13.7229 117.903 13.3441C118.042 12.9653 118.111 12.5342 118.111 12.0508C118.111 11.5674 118.042 11.1363 117.903 10.7575C117.768 10.3788 117.567 10.0793 117.3 9.85928C117.034 9.63922 116.701 9.52919 116.303 9.52919C115.901 9.52919 115.563 9.63922 115.289 9.85928C115.019 10.0793 114.814 10.3788 114.675 10.7575C114.54 11.1363 114.472 11.5674 114.472 12.0508C114.472 12.5342 114.54 12.9653 114.675 13.3441C114.814 13.7229 115.019 14.0223 115.289 14.2424C115.563 14.4588 115.901 14.5671 116.303 14.5671Z" fill="#DCF10D"/>
<path d="M125.85 19.4805C125.073 19.4805 124.407 19.3777 123.851 19.172C123.299 18.97 122.859 18.6941 122.533 18.3441C122.206 17.9942 121.994 17.601 121.896 17.1645L124.115 16.8777C124.183 17.0436 124.29 17.1987 124.437 17.343C124.583 17.4873 124.776 17.6028 125.017 17.6894C125.261 17.7796 125.558 17.8246 125.907 17.8246C126.429 17.8246 126.859 17.702 127.197 17.4567C127.539 17.215 127.709 16.8091 127.709 16.2391V14.7186H127.608C127.503 14.9495 127.345 15.1677 127.135 15.3733C126.925 15.579 126.654 15.7467 126.324 15.8766C125.993 16.0065 125.599 16.0714 125.141 16.0714C124.491 16.0714 123.9 15.9271 123.366 15.6385C122.837 15.3463 122.414 14.9008 122.099 14.3019C121.787 13.6995 121.631 12.9383 121.631 12.0184C121.631 11.0768 121.791 10.2904 122.11 9.65906C122.429 9.02775 122.854 8.55517 123.383 8.24131C123.916 7.92746 124.5 7.77053 125.135 7.77053C125.62 7.77053 126.025 7.8499 126.352 8.00863C126.679 8.16375 126.941 8.35856 127.14 8.59304C127.343 8.82392 127.499 9.0512 127.608 9.27486H127.698V7.87876H130.081V16.2716C130.081 16.9787 129.901 17.5703 129.54 18.0465C129.18 18.5227 128.68 18.8798 128.042 19.1179C127.407 19.3596 126.677 19.4805 125.85 19.4805ZM125.901 14.3398C126.288 14.3398 126.615 14.2478 126.881 14.0638C127.152 13.8762 127.358 13.6093 127.501 13.263C127.647 12.913 127.721 12.4946 127.721 12.0075C127.721 11.5205 127.649 11.0985 127.507 10.7413C127.364 10.3806 127.157 10.101 126.887 9.90257C126.617 9.70416 126.288 9.60495 125.901 9.60495C125.507 9.60495 125.174 9.70776 124.904 9.91339C124.634 10.1154 124.429 10.3968 124.29 10.7575C124.151 11.1183 124.082 11.535 124.082 12.0075C124.082 12.4873 124.151 12.9022 124.29 13.2521C124.433 13.5985 124.637 13.8672 124.904 14.0584C125.174 14.246 125.507 14.3398 125.901 14.3398Z" fill="#DCF10D"/>
<path d="M135.741 16.3528C134.866 16.3528 134.11 16.1742 133.471 15.8171C132.837 15.4563 132.346 14.9549 132.001 14.3127C131.655 13.667 131.483 12.9184 131.483 12.0671C131.483 11.2085 131.655 10.4581 132.001 9.81599C132.346 9.17024 132.837 8.6688 133.471 8.31166C134.11 7.95091 134.866 7.77053 135.741 7.77053C136.616 7.77053 137.371 7.95091 138.006 8.31166C138.644 8.6688 139.136 9.17024 139.482 9.81599C139.827 10.4581 140 11.2085 140 12.0671C140 12.9184 139.827 13.667 139.482 14.3127C139.136 14.9549 138.644 15.4563 138.006 15.8171C137.371 16.1742 136.616 16.3528 135.741 16.3528ZM135.753 14.5671C136.151 14.5671 136.483 14.4588 136.75 14.2424C137.016 14.0223 137.217 13.7229 137.352 13.3441C137.491 12.9653 137.561 12.5342 137.561 12.0508C137.561 11.5674 137.491 11.1363 137.352 10.7575C137.217 10.3788 137.016 10.0793 136.75 9.85928C136.483 9.63922 136.151 9.52919 135.753 9.52919C135.351 9.52919 135.013 9.63922 134.739 9.85928C134.468 10.0793 134.264 10.3788 134.125 10.7575C133.989 11.1363 133.922 11.5674 133.922 12.0508C133.922 12.5342 133.989 12.9653 134.125 13.3441C134.264 13.7229 134.468 14.0223 134.739 14.2424C135.013 14.4588 135.351 14.5671 135.753 14.5671Z" fill="#DCF10D"/>
<path d="M22.5541 8.91667V18.3333C22.5541 18.7778 22.3766 19.1667 22.0214 19.5C21.6662 19.8333 21.2519 20 20.7783 20H2.99074C2.5172 20 2.10284 19.8333 1.74768 19.5C1.39252 19.1667 1.21494 18.7778 1.21494 18.3333V8.91667C0.662472 8.47222 0.297447 7.92593 0.119867 7.27778C-0.0577135 6.62963 -0.0379824 5.98148 0.17906 5.33333L1.45172 1.58333C1.60957 1.08333 1.8858 0.694444 2.28042 0.416667C2.67505 0.138889 3.12886 0 3.64187 0H20.0088C20.5613 0 21.0447 0.143519 21.4591 0.430556C21.8734 0.717593 22.1595 1.10185 22.3174 1.58333L23.6196 5.33333C23.8367 5.98148 23.8515 6.62963 23.664 7.27778C23.4766 7.92593 23.1066 8.47222 22.5541 8.91667ZM14.563 8.05556C15.1352 8.05556 15.6187 7.87963 16.0133 7.52778C16.4079 7.17593 16.5658 6.75 16.4868 6.25L15.7469 1.66667H12.7872V6.25C12.7872 6.73148 12.955 7.15278 13.2904 7.51389C13.6258 7.875 14.05 8.05556 14.563 8.05556ZM9.02847 8.05556C9.58094 8.05556 10.0496 7.87963 10.4343 7.52778C10.8191 7.17593 11.0114 6.75 11.0114 6.25V1.66667H8.05177L7.31186 6.25C7.23293 6.73148 7.37105 7.15278 7.72621 7.51389C8.08137 7.875 8.51546 8.05556 9.02847 8.05556ZM3.64187 8.05556C4.11542 8.05556 4.52484 7.90278 4.87013 7.59722C5.21543 7.29167 5.41767 6.91667 5.47686 6.47222L6.24638 1.66667H3.28671L1.92526 5.72222C1.72795 6.2963 1.80688 6.8287 2.16204 7.31944C2.5172 7.81019 3.01048 8.05556 3.64187 8.05556ZM20.1272 8.05556C20.7586 8.05556 21.2568 7.81482 21.6219 7.33333C21.9869 6.85185 22.0707 6.31482 21.8734 5.72222L20.512 1.66667H17.5523L18.3218 6.47222C18.381 6.91667 18.5833 7.29167 18.9286 7.59722C19.2738 7.90278 19.6734 8.05556 20.1272 8.05556ZM2.99074 18.3333H20.7783V9.69444C20.7981 9.71296 20.7339 9.72222 20.586 9.72222H20.1272C19.6339 9.72222 19.1653 9.625 18.7214 9.43056C18.2774 9.23611 17.8384 8.93519 17.4043 8.52778C17.0886 8.89815 16.694 9.18981 16.2205 9.40278C15.7469 9.61574 15.224 9.72222 14.6518 9.72222C14.0599 9.72222 13.5518 9.64352 13.1276 9.48611C12.7034 9.3287 12.294 9.06481 11.8993 8.69444C11.6034 9.02778 11.2285 9.28241 10.7747 9.45833C10.3209 9.63426 9.80784 9.72222 9.23564 9.72222C8.62398 9.72222 8.08137 9.62037 7.60782 9.41667C7.13428 9.21296 6.72979 8.91667 6.39436 8.52778C5.92081 8.91667 5.45713 9.21296 5.00332 9.41667C4.5495 9.62037 4.09569 9.72222 3.64187 9.72222H3.24232C3.11406 9.72222 3.03021 9.71296 2.99074 9.69444V18.3333Z" fill="#DCF10D"/>
</svg>
