<svg width="360" height="360" viewBox="0 0 360 360" fill="none" xmlns="http://www.w3.org/2000/svg">
<path d="M137.968 176.746C132.463 171.747 127.859 165.794 123.235 159.987C122.522 159.998 121.853 159.753 121.213 159.464C119.748 163.055 116.542 161.076 114.414 159.316C112.143 157.512 109.959 155.557 108.148 153.282C106.948 151.814 105.863 150.257 104.9 148.625C103.678 147.443 102.58 146.139 101.626 144.732C99.8282 141.859 99.7125 137.967 101.093 134.903C101.922 132.248 102.463 128.431 105.805 127.8C104.352 122.696 105.394 111.325 112.805 117.747C122.777 125.647 130.783 135.674 139.392 144.972C142.78 142.034 146.627 139.699 150.315 137.166C153.322 133.318 156.424 129.544 159.489 125.743L159.261 126.026C169.317 111.571 178.107 96.1485 189.505 82.6343C194.501 76.5551 200.007 70.8424 206.289 66.0811C210.938 63.5385 211.83 71.7983 210.988 74.76C213.011 76.5187 213.283 79.4606 213.262 81.9479C214.375 83.2427 214.782 84.9542 215.034 86.5751C217.238 90.3019 217.262 95.7849 214.574 99.2719C207.579 106.131 200.31 112.745 192.989 119.264C191.023 120.986 188.986 122.624 186.965 124.28C186.191 125.023 185.125 125.738 183.998 125.306C182.778 127.926 180.307 129.711 178.415 131.838C173.366 137.304 167.107 141.447 161.945 146.758C159.611 148.887 157.48 151.203 155.926 153.975C155.083 155.524 153.761 158.551 151.582 157.051C150.411 158.252 149.238 159.451 148.05 160.637C147.903 163.391 146.902 168.877 143.208 168.24C143.447 171.194 142.308 178.61 137.968 176.746Z" fill="#6DB9FF"/>
<path d="M304.281 298.464C301.548 298.877 299.516 301.279 299.038 303.918C298.225 304.898 297.714 306.093 297.569 307.358C297.002 311.526 300.965 315.581 305.172 314.756C313.533 313.433 313.761 297.49 304.281 298.464Z" fill="#6DB9FF"/>
<path d="M103.384 253.221C103.341 253.236 103.298 253.251 103.255 253.267C101.666 253.764 99.9685 253.767 98.3239 253.943L98.5343 253.929C94.8954 254.193 91.1114 254.356 87.6657 252.953C95.0315 247.504 96.2954 233.794 84.5615 233.885C76.8722 234.817 72.8913 244.656 75.1922 251.447C72.4455 251.335 69.7207 250.909 67.0706 250.178C66.0174 249.908 65.0025 249.466 63.9253 249.309C62.4931 249.105 61.5424 250.95 62.6224 251.957H62.6099C62.6311 251.981 62.6522 252.005 62.6733 252.029L62.6438 251.995C66.7485 255.032 73.0324 255.827 78.0525 255.887C85.0711 263.042 97.4762 260.547 103.384 253.221ZM86.7708 242.494C86.3911 245.251 85.108 248.154 82.7109 249.711C80.8281 247.441 81.8128 243.936 83.4697 241.81C84.4067 240.348 87.0657 240.331 86.7708 242.494Z" fill="#6DB9FF"/>
<path d="M232.888 124.875C223.688 128.159 224.802 142.842 231.126 148.492C235.367 152.116 238.233 148.183 238.049 143.73C237.635 136.057 235.082 139.026 231.544 135.557C233.147 132.768 237.327 132.847 239.728 134.515C242.282 138.407 243.244 133.025 244.117 131.072C244.076 131.167 244.035 131.262 243.995 131.358C244.075 131.17 244.156 130.982 244.236 130.794L244.233 130.802C245.703 127.438 247.196 124.085 248.607 120.696C249.257 120.492 249.15 119.552 249.31 119.012C249.303 119.033 249.297 119.053 249.291 119.074C249.498 118.455 249.463 116.807 248.498 117.073C247.739 117.722 247.416 118.769 246.906 119.61C245.401 122.496 243.916 125.405 242.1 128.111C240.162 125.253 236.174 124.058 232.888 124.875Z" fill="#2A3253"/>
<path d="M247.101 124.239C247.075 124.299 247.05 124.359 247.024 124.419C247.055 124.348 247.085 124.278 247.115 124.208L247.068 124.318C247.098 124.248 247.128 124.178 247.158 124.107C247.139 124.151 247.12 124.195 247.101 124.239Z" fill="#2A3253"/>
<path d="M244.531 155.078C241.335 155.769 238.043 155.787 234.803 156.164C233.031 156.261 231.034 156.687 231.229 158.905C231.221 159.463 231.334 160.186 231.757 160.595C233.836 161.484 236.468 161.157 238.724 161.522C242.494 161.879 246.401 162.214 250.048 160.956C253.158 159.751 256.26 158.128 258.71 155.841C260.633 153.579 260.788 147.887 257.955 146.323C256.442 145.944 255.802 147.771 254.958 148.667C252.249 151.819 248.631 154.228 244.531 155.078Z" fill="#2A3253"/>
<path d="M259.485 134.683C262.344 138.15 266.429 130.698 266.613 128.147C267.387 124.987 264.886 119.83 262.586 124.957C258.584 124.337 257.68 132.203 259.485 134.683Z" fill="#2A3253"/>
<path d="M232.844 111.319C231.127 112.595 229.371 114.204 229.123 116.453C228.914 118.408 228.906 121.756 231.261 122.324C232.301 122.301 232.847 121.166 233.131 120.307C233.833 119.057 234.914 117.966 235.477 116.656C236.303 114.835 235.796 109.453 232.844 111.319Z" fill="#2A3253"/>
<path d="M138.306 208.052C138.3 208.014 138.294 207.977 138.288 207.94C138.297 208.11 138.305 208.279 138.312 208.449C138.309 208.317 138.32 208.183 138.306 208.052Z" fill="#2A3253"/>
<path d="M327.921 226.756C327.978 208.479 316.881 189.472 299.194 183.315C293.5 181.468 287.462 180.907 281.502 180.809C275.706 180.631 269.819 181.354 264.091 180.206C270.055 177.406 277.948 171.377 280.411 165.136C289.927 175.784 301.744 160.762 306.148 152.294C311.064 150.471 316.229 148.216 319.288 143.749C324.987 134.931 326.384 122.496 325.058 112.229C325.086 112.464 325.116 112.699 325.145 112.935C324.378 103.632 318.394 94.2359 308.339 93.7224C306.317 93.8483 303.586 94.2036 302.807 96.3888C302.482 97.3854 302.394 99.1583 303.517 99.6535C303.506 99.6676 303.495 99.681 303.483 99.695C303.783 99.7668 304.093 99.7923 304.401 99.7706C304.617 100.046 304.923 100.051 305.079 99.7459C312.635 99.0892 319.717 105.728 320.466 113.112C320.447 112.951 320.427 112.79 320.407 112.63C321.345 119.102 320.133 125.786 317.724 131.821C316.231 135.673 312.673 137.941 309.163 139.767C308.376 132.522 301.597 123.267 293.449 125.447C292.253 124.784 290.906 126.572 289.696 126.878C286.371 128.492 282.346 131.126 278.602 129.499C278.694 126.813 279.393 124.187 279.901 121.556L279.88 121.652C279.983 121.163 280.086 120.675 280.189 120.186L280.171 120.271C280.191 120.178 280.21 120.085 280.23 119.992L280.228 120.001L280.273 119.786C280.254 119.879 280.235 119.971 280.215 120.063C281.017 116.355 281.706 112.619 282.675 108.949C286.487 107.914 285.876 100.566 284.06 97.9434C281.841 94.8084 276.62 95.6587 273.204 94.7622C260.452 92.8137 246.972 86.0423 234.386 92.2185C231.098 91.7927 230.732 89.6342 228.743 87.4686C225.911 84.7319 226.931 80.3286 226.924 76.7805C235.998 70.2573 247.379 76.0485 256.975 78.2743C258.629 78.8352 259.317 76.7051 259.37 75.436C259.752 71.7779 256.613 69.2318 255.022 66.2766C256.95 63.5128 260.385 62.3291 263.576 61.7618C274.273 60.1062 284.182 68.2615 292.265 74.2869C292.204 74.2355 292.144 74.184 292.083 74.1326C298.824 79.3413 299.685 84.3069 303.12 91.4424C304.925 94.7226 306.882 90.581 306.634 88.5299C306.616 86.3112 305.494 84.294 305.095 82.1342C303.522 73.8251 297.313 67.5779 290.279 63.3791C283.146 59.0313 275.533 53.9915 266.884 54.0285C257.219 54.0434 247.438 61.3567 252.741 71.6047C244.008 70.0504 233.15 66.9239 225.878 73.7819C223.291 72.7211 222.795 83.574 223.126 85.1891C220.934 81.3083 219.298 77.0766 216.401 73.6348C212.111 69.0669 208.218 64.1409 204.766 58.9106C203.098 56.8716 201.62 53.9618 198.862 53.3512C197.021 53.1969 196.476 55.3188 195.262 56.3126C190.742 61.6329 187.211 67.6996 183.02 73.2744C182.566 70.6142 180.533 68.4072 178.813 66.4221C174.397 63.119 168.888 61.3732 163.556 60.1583C158.483 59.1384 153.768 56.6995 148.588 56.1828C149.969 53.3224 150.917 49.5971 149.154 46.7049C147.01 44.0478 142.03 44.9788 139.01 45.3398C138.076 41.9676 135.294 38.9529 131.568 40.443C128.818 41.2408 126.162 42.3348 123.647 43.7056C119.977 39.0623 112.409 42.8935 107.982 44.5716C93.7038 50.7774 78.4851 64.2258 70.0311 77.2782C66.7133 72.809 56.2482 88.181 53.9137 90.6496C39.4578 109.901 27.738 132.375 25.4955 156.658C25.0577 164.851 25.2241 173.303 27.7704 181.17C30.1189 187.854 33.8794 194.391 39.3589 198.982C43.5968 201.955 48.6846 203.439 53.2326 205.878C56.9808 207.693 60.8194 209.361 64.831 210.503C87.2696 216.938 111.272 215.695 133.561 209.303C132.57 221.217 129.373 233.033 126.554 244.701C124.137 254.115 122.542 263.701 120.854 273.262C119.486 278.821 118.021 284.383 118.105 290.157C118.243 294.522 117.116 300.283 121.005 303.331C120.865 303.937 120.88 304.864 121.483 305.193L121.481 305.196C121.853 305.338 122.232 305.46 122.618 305.559C122.465 306.133 122.319 306.71 122.179 307.288C120.414 306.333 120.647 310.037 120.701 311.035C120.456 314.213 120.184 317.389 119.601 320.525C118.919 324.017 116.537 327.091 116.499 330.719C116.4 333.347 117.691 336.53 120.678 336.602C121.26 334.152 121.363 331.538 121.995 329.061C122.573 327.251 123.189 325.432 123.665 323.575C125.082 318.165 126.26 312.674 126.904 307.114C133.326 309.578 139.656 312.381 146.363 313.995C164.028 317.924 182.355 316.365 200.205 314.608C209.58 313.457 219.002 312.885 228.435 312.463C239.578 311.649 250.517 309.06 261.464 306.93C261.278 310.09 262.298 313.148 263.089 316.169C264.174 321.445 265.783 326.595 267.024 331.829L266.955 331.5C268.155 338.607 272.558 335.413 272.288 329.918C271.459 321.444 268.558 313.25 265.978 305.178C268.286 302.194 268.328 298.026 267.424 294.508C268.055 291.632 268.416 288.703 268.501 285.76C271.619 290.666 288.116 281.06 292.353 279.113C310.039 270.287 323.786 256.082 327.262 236.079C327.24 236.184 327.218 236.289 327.196 236.394C327.749 233.212 327.992 229.984 327.921 226.756ZM206.731 198.201C206.398 198.366 206.062 198.537 205.716 198.669C204.945 193.768 203.693 188.954 202.215 184.221C205.118 182.224 207.814 179.854 210.032 177.108C213.097 180.481 216.807 183.206 220.941 185.124C220.988 185.265 221.019 185.406 221.061 185.549C221.047 185.503 221.033 185.457 221.019 185.412C221.282 186.383 221.549 187.354 221.821 188.324C216.896 191.87 211.995 195.493 206.581 198.275C206.631 198.25 206.681 198.226 206.731 198.201ZM223.963 186.26C230.081 187.842 236.595 188.622 242.85 187.428C238.214 190.839 233.557 194.221 228.94 197.655C226.829 194.076 225.556 190.082 223.963 186.26ZM238.551 99.1062C247.78 97.4683 255.434 100.064 264.026 102.952C267.619 104.038 271.277 104.889 274.899 105.872C277.037 106.547 279.459 106.776 281.22 108.266C280.041 112.1 279.137 116.01 278.073 119.876C277.036 124.272 274.886 128.769 275.969 133.351C277.732 140.862 287.668 138.317 291.888 134.436C294.748 134.219 297.953 133.24 300.313 135.458C301.99 137.227 305.366 140.231 304.242 142.849C303.972 143.071 303.704 143.296 303.44 143.526C302.96 145.613 301.821 147.606 300.671 149.421C300.677 149.502 300.686 149.581 300.694 149.661C296.633 156.266 287.675 166.501 280.013 158.76V158.762C278.615 158.894 278.855 161.137 279.081 162.167C276.105 166.657 271.909 170.755 266.628 172.376C262.461 173.537 258.076 173.267 253.853 174.139C247.308 175.417 240.596 176.585 233.958 175.292C227.118 174.223 220.209 172.393 214.92 167.678C212.305 165.222 209.446 162.681 208.12 159.265C207.697 157.579 207.914 155.799 207.889 154.076C208.185 149.167 208.319 144.217 209.301 139.381C210.324 135.053 211.767 130.834 213.609 126.786C216.216 121.001 218.555 114.777 223.438 110.483L223.367 110.542C224.548 109.352 226.339 105.965 227.884 105.668C230.62 102.343 234.139 99.5599 238.551 99.1058L238.551 99.1062ZM225.826 95.3519C225.817 95.4527 225.803 95.5529 225.783 95.6522C225.798 95.5527 225.812 95.4525 225.826 95.3517L225.826 95.3519ZM187.663 77.7455C191.252 73.5366 194.143 68.6676 198.321 64.9974C203.384 71.1996 207.06 78.4663 212.71 84.2383C212.628 84.1368 212.546 84.0353 212.464 83.9337L212.478 83.9508C212.435 83.8975 212.392 83.8441 212.349 83.7907L212.382 83.831L212.287 83.7138C212.445 83.9101 212.603 84.1062 212.761 84.3019L212.638 84.1487C212.759 84.2996 212.881 84.4507 213.003 84.6019L213.114 84.7406L213.064 84.6782C214.662 86.6755 215.73 89.0172 216.884 91.2828C215.47 90.3458 214.115 91.8153 213.128 92.7436C209.659 95.4645 206.787 98.8062 203.581 101.817C195.63 109.83 187.264 117.426 179.582 125.706C171.673 133.727 163.477 141.461 155.521 149.439C150.459 154.276 145.65 159.606 142.798 166.079C141.178 163.459 137.476 163.134 134.974 161.573C123.049 155.266 111.737 147.807 99.6414 141.818C106.667 132.954 112.039 122.797 119.776 114.507C126.626 123.607 132.472 133.58 140.789 141.49C146.067 147.527 148.718 140.024 148.281 135.095C153.875 126.652 158.7 117.719 164.515 109.415C172.097 98.766 179.596 88.0384 187.663 77.7455ZM154.1 68.5327C160.637 70.9199 167.704 71.622 173.919 74.8927L173.864 74.8656C175.788 75.9285 177.971 76.6715 179.557 78.2382C171.911 89.9982 163.709 101.415 156.747 113.604C156.758 113.587 156.768 113.568 156.779 113.55C156.725 113.642 156.671 113.734 156.618 113.826C156.626 113.812 156.635 113.798 156.642 113.784L156.601 113.855L156.66 113.754C153.462 119.435 150.369 125.174 147.247 130.897C146.582 129.105 144.797 128.293 143.402 127.164C140.745 124.783 138.421 122.095 136.174 119.333C131.638 113.673 127.877 107.413 123.189 101.879C119.722 97.983 117.846 101.328 115.726 104.34C112.29 108.999 109.314 113.963 106.391 118.953C103.426 123.943 100.493 128.951 97.5428 133.947C96.0075 136.737 91.3784 142.65 94.0266 145.589L94.0095 145.596C94.9352 146.101 95.7488 146.792 96.8905 146.888C100.46 148.907 103.677 151.474 106.98 153.887C114.715 159.714 122.328 165.697 130.14 171.424C132.429 173.137 134.772 174.775 137.132 176.39C138.63 177.523 140.781 179.352 142.31 177.222C142.493 177.495 142.727 177.729 142.999 177.912C143.39 177.542 143.771 177.161 144.171 176.801L144.108 176.858C147.971 173.738 150.848 169.726 154.486 166.369C168.471 153.907 181.726 140.694 194.726 127.219C200.152 121.919 205.194 116.247 210.297 110.641C214.085 106.455 217.765 101.851 222.969 99.4152L222.923 99.3851C225.635 98.848 225.923 95.6522 226.056 93.3576C227.107 94.5637 228.084 95.8315 228.983 97.1543C226.707 100.011 224.05 103.064 223.546 106.799C220.314 107.236 218.037 110.104 215.989 112.405C216.013 112.375 216.037 112.345 216.061 112.315C211.118 118.233 207.451 125.109 205.291 132.512L205.264 132.6C205.272 132.572 205.281 132.545 205.289 132.517C205.277 132.556 205.265 132.596 205.253 132.635L205.255 132.626C205.238 132.682 205.221 132.738 205.204 132.794C205.21 132.774 205.217 132.755 205.223 132.735C205.212 132.768 205.202 132.801 205.192 132.834L205.197 132.817C205.194 132.825 205.192 132.834 205.189 132.843L205.19 132.838C205.183 132.863 205.175 132.887 205.167 132.912L205.174 132.89L205.171 132.9L205.175 132.886C203.492 138.154 203.084 143.689 202.488 149.153C201.683 155.969 201.565 163.368 204.705 169.646C200.053 174.121 194.265 177.174 188.555 180.074C179.758 185.224 170.334 190.396 159.904 190.724C151.522 191.012 142.847 192.296 134.645 190.023C131.431 187.297 127.669 185.282 123.924 183.386C117.356 180.349 111.675 175.884 105.805 171.735C102.194 169.411 98.4149 167.327 94.9765 164.747C91.0647 161.249 87.9401 156.916 85.2709 152.421C73.5941 133.147 78.3349 125.607 88.0774 107.395C89.8152 103.81 90.8736 99.924 92.9561 96.5037C95.4761 92.1823 98.6475 88.2443 102.465 85.0017C108.858 79.8055 116.32 76.1046 123.493 72.1204C132.592 67.853 144.328 65.5063 154.1 68.5327ZM140.781 48.4442C142.992 48.5834 145.504 48.8059 147.263 50.2758C146.413 52.4457 144.857 54.2464 143.4 56.0327C141.749 56.0784 140.1 56.157 138.457 56.3241C139.613 53.8654 140.048 51.1288 139.71 48.4327C140.067 48.4339 140.425 48.4389 140.781 48.4442ZM72.7054 81.8058C72.8435 81.4066 72.886 80.9805 72.8295 80.5619C85.5089 66.622 101.287 54.826 119.346 48.9998C119.843 49.6039 120.818 50.0166 120.891 48.8784C121.069 48.8851 121.245 48.9173 121.414 48.9741C119.204 54.3282 113.089 56.3435 109.942 60.9885C109.113 61.9041 109.32 65.9872 111.139 64.8546C113.562 62.5332 116.747 61.1711 119.184 58.8355C122.763 55.866 125.377 51.2868 124.676 46.5198C128.041 45.647 134.051 42.8755 135.957 47.2271C136.183 49.0281 136.914 50.2722 135.488 51.8097C133.605 54.2726 130.461 55.6821 128.824 58.281C123.428 59.8936 118.464 62.6046 113.608 65.406C103.99 70.2575 94.9776 76.8426 89.6166 86.403C88.5735 85.5458 87.0966 85.665 85.837 85.4011C81.3284 84.6326 76.9422 83.3394 72.5355 82.1406C72.6058 82.0364 72.6629 81.924 72.7054 81.8058ZM199.611 305.507C182.124 308.209 164.16 310.619 146.54 307.815C139.722 306.606 133.24 304.062 126.484 302.607C126.212 302.002 125.63 301.194 124.894 301.305C126.89 297.111 125.912 292.331 126.248 287.866C128.647 277.653 128.734 267.137 130.238 256.79C132.461 240.808 136.621 224.932 136.872 208.75C136.88 208.748 136.888 208.747 136.896 208.746C136.53 207.592 136.241 206.416 136.032 205.224C135.559 205.094 135.072 204.991 134.594 204.911L134.639 204.918C125.558 203.631 116.312 204.761 107.182 203.889C92.2516 203.044 77.4969 200.241 63.2962 195.554C56.6009 193.094 50.3069 189.695 43.6757 187.074C39.0051 184.547 36.1489 179.644 33.848 175.031C33.9015 175.156 33.955 175.281 34.0086 175.405C33.4134 174.121 33.0222 172.763 32.6681 171.397C32.7277 171.68 32.7876 171.962 32.8476 172.245C32.2357 169.719 32.0108 167.117 31.8766 164.526C31.88 164.609 31.8831 164.692 31.8864 164.775C31.2205 148.874 37.2726 133.451 44.8962 119.765C50.91 108.274 58.6822 97.8498 67.3165 88.2024C67.388 88.3002 67.46 88.3975 67.5296 88.4968C67.8089 88.1258 68.0124 87.5241 68.526 87.4492C68.4729 87.3323 68.4066 87.2218 68.3283 87.12C68.5067 86.9206 68.7047 86.7395 68.9194 86.5797L69.2982 86.739C69.7611 86.0142 70.7777 86.2991 70.3937 87.1962C75.5624 89.4043 80.8481 91.3276 86.0084 93.5514C82.8972 101.8 77.6052 109.071 74.8141 117.468C70.2857 130.633 72.4155 145.554 79.6988 157.323C83.3706 163.835 87.5958 170.309 93.4491 175.067C96.9389 177.525 100.715 179.553 104.334 181.814C107.921 184.09 111.211 186.833 114.943 188.884C119.856 191.726 125.412 193.047 130.744 194.851C133.002 195.475 135.795 197.564 137.928 195.706C138.369 195.601 139.035 195.935 139.273 195.416C166.409 201.326 171.842 200.393 196.453 187.713C197.919 192.086 199.561 196.403 200.598 200.909C201.345 203.094 201.204 206.278 203.421 207.547C205.427 207.961 205.554 205.31 206.523 204.196C207.402 203.262 208.355 202.412 209.321 201.567C213.765 197.931 218.124 194.196 222.398 190.362C222.683 191.355 222.974 192.346 223.272 193.335C221.302 194.901 220.934 198.283 220.052 200.575C218.74 205.087 217.722 209.678 216.763 214.277C213.763 230.508 210.131 246.645 207.731 262.976C207.766 262.694 207.8 262.411 207.835 262.129C206.723 269.885 206.506 277.725 205.667 285.509C205.095 289.295 204.532 293.076 204.431 296.911C204.165 299.472 203.91 302.222 205.148 304.584C203.302 304.89 201.457 305.198 199.611 305.507ZM269.95 228.211C272.056 229.237 277.903 232.643 276.927 235.373C275.365 240.283 270.809 243.207 268.15 247.411C267.928 244.01 267.796 240.606 267.662 237.202C269.495 234.562 267.916 231.135 268.186 228.165C268.259 228.272 268.349 228.366 268.452 228.443C268.836 227.644 269.618 228.606 269.963 228.975C270.01 228.722 270.006 228.462 269.95 228.211ZM321.771 230.024C320.564 239.68 314.987 248.513 307.872 254.976C301.445 260.833 293.729 264.999 286.017 268.908C282.819 270.497 279.552 271.945 276.212 273.207C273.747 274.227 270.966 274.754 268.842 276.434C269.044 272.206 269.274 267.971 269.044 263.738C269.045 263.774 269.046 263.81 269.048 263.846C269.016 263.048 268.983 262.25 268.95 261.451C268.962 261.736 268.973 262.02 268.984 262.305C268.984 262.297 268.984 262.288 268.984 262.28C268.988 262.373 268.992 262.464 268.995 262.557C268.9 260.151 268.778 257.746 268.629 255.341C269.981 256.211 270.888 254.362 271.785 253.627C275.441 249.452 278.766 244.681 280.194 239.253C281.743 233.984 280.304 227.727 274.837 225.472C272.703 224.529 269.518 222.57 267.425 224.389C267.324 224.253 267.201 224.133 267.062 224.035C266.666 216.858 265.965 209.702 265.182 202.558C265.191 202.629 265.2 202.699 265.208 202.769C265.2 202.698 265.191 202.627 265.184 202.556C265.499 201.992 265.584 200.784 264.784 200.643C262.932 199.409 263.304 205.858 263.207 206.828C263.312 216.225 263.215 225.621 262.796 235.009C262.085 246.538 262.704 258.116 261.736 269.625C261.279 273.93 260.734 278.225 260.227 282.524C259.888 285.69 259.085 288.839 259.348 292.038C250.413 295.156 241.516 298.601 232.28 300.712C224.703 302.156 216.971 302.579 209.371 303.896C210.369 301.044 210.328 297.953 210.7 294.981C211.597 289.907 212.124 284.775 212.276 279.626C212.273 279.699 212.27 279.773 212.267 279.847C212.646 264.151 215.074 248.631 217.415 233.136C218.917 222.839 220.41 212.527 222.647 202.359C223.174 202.239 223.187 201.417 223.121 201.002C223.085 199.377 223.875 197.779 224.141 196.169C228.746 211.363 227.243 209.693 239.873 201.225C245.864 196.927 252.212 193.114 258.012 188.558C259.915 186.975 260.106 184.105 259.887 181.795C260.025 181.746 260.162 181.697 260.299 181.649C263.999 186.764 272.105 186.251 277.776 187.139C282.251 187.563 286.73 188.156 291.078 189.314C300.825 191.574 309.421 197.7 314.861 206.08C319.744 213.032 322.649 221.474 321.771 230.024Z" fill="#2A3253"/>
<path d="M205.348 225.756C204.991 222.504 201.662 220.209 198.518 220.35C195.573 220.805 195.548 225.012 196.493 227.193C193.357 231.863 206.885 235.303 205.348 225.756Z" fill="#2A3253"/>
<path d="M194.062 267.056C190.599 267.318 189.364 271.126 190.217 274.077C189.993 274.822 189.973 275.866 190.606 276.407L190.604 276.41C191.287 276.791 192.094 276.42 192.836 276.383C193.977 276.76 194.607 276.923 194.518 275.427C197.554 274.089 198.079 267.032 194.062 267.056Z" fill="#2A3253"/>
</svg>
